<svg width="23" height="20" viewBox="0 0 23 20" fill="none" xmlns="http://www.w3.org/2000/svg">
<path d="M11.3139 4.18339L10.6641 3.55294C10.5296 3.42243 10.4001 3.29738 10.2744 3.1759C10.0546 2.96356 9.84604 2.76211 9.6414 2.56147C8.00066 0.953694 5.74229 0.498491 3.93293 1.27973L3.93277 1.2798C2.11901 2.06251 0.856964 4.05597 0.901053 6.2878L0.901054 6.28786C0.934362 7.97971 1.64321 9.47986 2.67628 10.9641L2.67657 10.9645C4.9314 14.2078 7.9903 16.6439 11.2533 19.0299C13.6307 17.2989 15.895 15.5126 17.8502 13.3974L18.5111 14.0083L17.8502 13.3974C19.5093 11.6026 20.8745 9.78716 21.4325 7.53915L21.4325 7.53892C22.0206 5.1723 21.0148 2.70673 19.1001 1.55457L11.3139 4.18339ZM11.3139 4.18339L11.9405 3.52977M11.3139 4.18339L11.9405 3.52977M11.9405 3.52977C12.0846 3.3794 12.212 3.2413 12.3317 3.11146C12.5615 2.86227 12.7632 2.64348 13.0019 2.42673L13.0022 2.42642M11.9405 3.52977L13.0022 2.42642M13.0022 2.42642C14.8652 0.732473 17.2782 0.458961 19.0999 1.55448L13.0022 2.42642Z" stroke="black" stroke-width="1.8"/>
</svg>
