<svg width="24" height="24" viewBox="0 0 24 24" fill="none" xmlns="http://www.w3.org/2000/svg">
<path d="M2.88104 7.33129C2.91728 6.75155 3.39803 6.2999 3.9789 6.2999H20.0211C20.602 6.2999 21.0827 6.75155 21.119 7.33128L21.8362 18.8065C21.9477 20.5912 20.5303 22.0999 18.7422 22.0999H5.2578C3.46966 22.0999 2.0523 20.5912 2.16384 18.8065L2.88104 7.33129Z" stroke="black" stroke-width="1.8"/>
<path d="M15.3 9.8999C15.3 11.7224 13.8226 13.1999 12 13.1999C10.1775 13.1999 8.70001 11.7224 8.70001 9.8999" stroke="black" stroke-width="1.8" stroke-linecap="round"/>
<path d="M15.3 5.94995V4.29995C15.3 2.47741 13.8226 0.999952 12 0.999952C10.1775 0.999952 8.70001 2.47741 8.70001 4.29995V5.94995" stroke="black" stroke-width="1.8" stroke-linecap="round"/>
</svg>
