<svg width="22" height="22" viewBox="0 0 22 22" fill="none" xmlns="http://www.w3.org/2000/svg">
<path d="M9.02481 7.46195C9.09716 7.47238 9.15745 7.48281 9.2298 7.49324C10.303 7.72266 11.4002 8.70293 12.2443 9.28691C12.7146 9.62062 13.1125 9.58934 13.5828 9.27649C14.5836 8.58821 15.6206 7.93123 16.6455 7.25338C16.9228 7.06567 17.2122 6.86753 17.5498 7.11782C17.9236 7.38895 17.6945 7.68095 17.5016 7.95208C16.4887 9.34949 15.4879 10.7469 14.463 12.1339C13.7636 13.0933 12.7749 13.2288 11.7138 12.551C10.9782 12.0713 10.2186 11.6229 9.49508 11.1223C9.01275 10.7886 8.61484 10.8303 8.15663 11.1432C7.14376 11.8314 6.11882 12.4884 5.09389 13.1663C4.81656 13.354 4.52716 13.5521 4.18954 13.2914C3.85191 13.0411 4.03278 12.7596 4.21365 12.4989C5.2627 11.0597 6.29969 9.62062 7.34874 8.18151C7.69843 7.69138 8.34956 7.39938 9.02481 7.46195Z" fill="black"/>
<path d="M4.81038 18.7478C4.83176 18.4539 4.70787 18.1681 4.47873 17.9827C2.27921 16.2037 0.9 13.5525 0.9 10.5868C0.9 5.27627 5.38748 0.9 11.0098 0.9C16.6196 0.9 21.1078 5.27565 21.1078 10.5868C21.1078 15.8966 16.6092 20.2735 10.998 20.2735C10.0656 20.2735 9.17985 20.1544 8.32696 19.9277C8.15685 19.8825 7.97721 19.8882 7.81028 19.944L4.64643 21.0022L4.81038 18.7478Z" stroke="black" stroke-width="1.8" stroke-linejoin="round"/>
</svg>
